<?xml version="1.0" encoding="UTF-8" standalone="no"?>
<!DOCTYPE svg PUBLIC "-//W3C//DTD SVG 1.1//EN" "http://www.w3.org/Graphics/SVG/1.1/DTD/svg11.dtd">
<svg version="1.1" xmlns="http://www.w3.org/2000/svg" xmlns:xlink="http://www.w3.org/1999/xlink" preserveAspectRatio="xMidYMid meet" viewBox="0 0 640 640" width="640" height="640"><defs><path d="M493.8 56.62C499.33 56.62 503.8 61.1 503.8 66.62C503.8 149.13 503.8 386.65 503.8 469.15C503.8 474.68 499.33 479.15 493.8 479.15C409.04 479.15 164.76 479.15 80 479.15C74.48 479.15 70 474.68 70 469.15C70 386.65 70 149.13 70 66.62C70 61.1 74.48 56.62 80 56.62C164.76 56.62 409.04 56.62 493.8 56.62Z" id="a1NefOPvCT"></path><path d="" id="bdbiMoAFn"></path><path d="M127.75 56.62L192.54 56.62L192.54 479.15L127.75 479.15L127.75 56.62Z" id="a9LNW6qCs"></path><path d="M345.35 56.62L429.86 56.62L429.86 479.15L345.35 479.15L345.35 56.62Z" id="ai7gkTuqa"></path><path d="M236.9 56.62L305.21 56.62L305.21 479.15L236.9 479.15L236.9 56.62Z" id="a5IenpoBPL"></path><path d="M70 136.2L503.8 136.2L503.8 212.25L70 212.25L70 136.2Z" id="c18JEacjd2"></path><path d="M70 267.89L503.8 267.89L503.8 336.2L70 336.2L70 267.89Z" id="g1ZRZaLptS"></path><path d="M70 385.49L503.8 385.49L503.8 446.06L70 446.06L70 385.49Z" id="a7UDTNZz1"></path></defs><g><g><g><use xlink:href="#a1NefOPvCT" opacity="1" fill="#926b00" fill-opacity="1"></use></g><g><g><use xlink:href="#bdbiMoAFn" opacity="1" fill-opacity="0" stroke="#000000" stroke-width="1" stroke-opacity="1"></use></g></g><g><use xlink:href="#a9LNW6qCs" opacity="1" fill="#ae8821" fill-opacity="1"></use></g><g><use xlink:href="#ai7gkTuqa" opacity="1" fill="#ae8821" fill-opacity="1"></use></g><g><use xlink:href="#a5IenpoBPL" opacity="1" fill="#ae8821" fill-opacity="1"></use></g><g><use xlink:href="#c18JEacjd2" opacity="1" fill="#ae8821" fill-opacity="1"></use></g><g><use xlink:href="#g1ZRZaLptS" opacity="1" fill="#ae8821" fill-opacity="1"></use></g><g><use xlink:href="#a7UDTNZz1" opacity="1" fill="#ae8821" fill-opacity="1"></use></g></g></g></svg>